<?xml version="1.0" encoding="UTF-8" standalone="no"?>
<!-- Created with Inkscape (http://www.inkscape.org/) -->

<svg
   xmlns:dc="http://purl.org/dc/elements/1.1/"
   xmlns:cc="http://creativecommons.org/ns#"
   xmlns:rdf="http://www.w3.org/1999/02/22-rdf-syntax-ns#"
   xmlns:svg="http://www.w3.org/2000/svg"
   xmlns="http://www.w3.org/2000/svg"
   xmlns:sodipodi="http://sodipodi.sourceforge.net/DTD/sodipodi-0.dtd"
   xmlns:inkscape="http://www.inkscape.org/namespaces/inkscape"
   width="210mm"
   height="297mm"
   viewBox="0 0 744.09448819 1052.3622047"
   id="svg2"
   version="1.1"
   inkscape:version="0.91 r13725"
   sodipodi:docname="crystals.svg">
  <defs
     id="defs4" />
  <sodipodi:namedview
     id="base"
     pagecolor="#ffffff"
     bordercolor="#666666"
     borderopacity="1.0"
     inkscape:pageopacity="0.0"
     inkscape:pageshadow="2"
     inkscape:zoom="1.5494276"
     inkscape:cx="271.0149"
     inkscape:cy="729.84596"
     inkscape:document-units="px"
     inkscape:current-layer="layer1"
     showgrid="false"
     inkscape:window-width="2560"
     inkscape:window-height="1300"
     inkscape:window-x="1701"
     inkscape:window-y="56"
     inkscape:window-maximized="0" />
  <metadata
     id="metadata7">
    <rdf:RDF>
      <cc:Work
         rdf:about="">
        <dc:format>image/svg+xml</dc:format>
        <dc:type
           rdf:resource="http://purl.org/dc/dcmitype/StillImage" />
        <dc:title></dc:title>
      </cc:Work>
    </rdf:RDF>
  </metadata>
  <g
     inkscape:label="Layer 1"
     inkscape:groupmode="layer"
     id="layer1">
    <path
       id="path4224"
       style="fill:none;fill-rule:evenodd;stroke:#b3b3b3;stroke-width:1px;stroke-linecap:butt;stroke-linejoin:bevel;stroke-opacity:1"
       d="m 400.79318,116.21001 7.4221,-20.007389 -9.3583,-38.723979 M 365.2962,164.29228 372.0729,142.6714 m -9.0356,-35.81968 8.0675,15.48959 m -0.9681,-6.1313 8.0675,-41.305577 20.65278,-16.780391 m -28.72028,57.763268 30.65648,0.9681 -1.6135,-60.022167 z m -2.30533,180.27565 -22.36195,5.4764 m -102.69284,36.09822 5.09048,-29.36813 25.08158,4.95561 z m 134.70185,-26.23553 1.5663,26.23553 m -151.93115,-45.81429 21.02086,15.97039 m 30.01967,-98.37652 -16.51143,-3.55631 m 139.20406,-74.9365 0,-14.47925 M 383.45678,336.81128 370.87214,116.03706 m 28.45047,75.69856 8.63675,-8.12871 m -15.6329,153.98752 6.4881,-145.85881 9.65284,5.58848 m -18.05665,140.77838 1.2912,-195.13909 16.25741,3.04826 m -22.70334,191.42415 -7.77931,-200.56894 13.92763,6.75338 16.55502,-12.84991 -30.09788,6.66621 m -2.92499,153.36766 2.54022,21.8459 -9.65283,-17.78154 m 0.50804,0 c 0.22248,-3.15053 -4.19531,-15.33143 -1.8927,-13.78434 l 8.90884,10.58133 -9.55636,-126.85627 m -20.84987,137.49921 21.20494,-21.44575 -26.77336,-139.42348 25.91025,22.86198 -2.54022,-57.91702 -23.87807,35.05504 m -10.23403,124.31575 29.10481,-28.47194 m -81.86824,-83.65076 85.58231,183.64283 m -143.49933,-202.9485 2.41321,-8.1287 m 22.48095,47.12109 3.59351,-2.43765 m -49.82552,-40.61909 21.39175,4.11408 24.94088,38.85854 0.40742,4.42692 m 110.60298,159.61331 -93.83753,-172.9739 15.87638,-10.54192 -20.44877,-4.19136 m -6.09653,84.33531 28.45046,-24.38611 71.91733,127.24994 m -111.03672,-133.85451 13.71719,9.14479 m -3.04826,21.84589 -11.25338,-14.90787 0.47427,-16.09336 -35.96094,-46.22146 m 25.4022,91.44792 0.50804,-13.71718 m 86.48994,103.25539 -86.99798,-86.99799 20.32176,-16.2574 81.70671,103.41403 M 143.11961,217.4099 l 3.70511,-25.29325 2.70548,14.02784 29.30129,-23.04562 -3.87535,-12.17768 2.47824,-8.14408 m -99.703643,32.51482 21.845893,-9.65284 m 21.84589,39.39147 -22.353934,-24.15015 m 156.906744,108.97346 -50.8672,-41.21737 -61.83971,-50.99064 6.24774,-11.51142 152.04509,132.31542 m -120.18953,-0.90561 -60.45724,-22.35393 c 2.02486,-7.22775 3.70365,-13.24524 6.36515,-20.12257 l 37.83468,-41.35076 -14.01707,4.38545 -55.53545,-35.02926 -18.698338,-26.40593 151.248318,96.16913 -7.84638,-9.46543 -121.196804,-82.99858 2.540224,-42.16766 45.21591,34.03895 32.00678,-9.14479 50.29636,50.8044 5.84334,-8.65701 -57.66383,-62.46915 25.91024,-5.08044 -6.60457,-27.43438 55.88484,81.9221 9.17996,-5.9995 -18.32475,-28.67451 16.76545,-13.08213 -13.33615,-9.2718 8.90604,-5.47543 -16.39969,-27.54744 -18.79763,4.06436 25.91024,44.70787 0.50805,-15.74936 m -96.02032,103.13294 -22.56261,23.01385 -1.31546,13.56532 79.38938,42.94878" />
  </g>
</svg>
