<?xml version="1.0" encoding="UTF-8" standalone="no"?>
<!-- Created with Inkscape (http://www.inkscape.org/) -->

<svg
   xmlns:dc="http://purl.org/dc/elements/1.1/"
   xmlns:cc="http://creativecommons.org/ns#"
   xmlns:rdf="http://www.w3.org/1999/02/22-rdf-syntax-ns#"
   xmlns:svg="http://www.w3.org/2000/svg"
   xmlns="http://www.w3.org/2000/svg"
   xmlns:sodipodi="http://sodipodi.sourceforge.net/DTD/sodipodi-0.dtd"
   xmlns:inkscape="http://www.inkscape.org/namespaces/inkscape"
   width="810"
   height="630"
   id="svg3309"
   version="1.1"
   inkscape:version="0.91 r13725"
   sodipodi:docname="Formal_Chapter_Slide_Outer_Data.svg">
  <defs
     id="defs3311">
    <clipPath
       id="clipPath22"
       clipPathUnits="userSpaceOnUse">
      <path
         inkscape:connector-curvature="0"
         id="path24"
         d="m 363,228 285,0 0,276 -285,0 0,-276 z" />
    </clipPath>
    <clipPath
       id="clipPath32"
       clipPathUnits="userSpaceOnUse">
      <path
         inkscape:connector-curvature="0"
         id="path34"
         d="m 363,228 285,0 0,276 -285,0 0,-276 z" />
    </clipPath>
    <radialGradient
       id="radialGradient36"
       spreadMethod="pad"
       gradientTransform="matrix(0.970665,-1.820817,3.691983,1.968171,-1703.8568,689.85093)"
       gradientUnits="userSpaceOnUse"
       r="97.453407"
       cy="465.24231"
       cx="637.35345"
       fy="465.24231"
       fx="637.35345">
      <stop
         id="stop38"
         offset="0"
         style="stop-opacity:1;stop-color:#ffffff" />
      <stop
         id="stop40"
         offset="1"
         style="stop-opacity:0;stop-color:#ffffff" />
    </radialGradient>
    <mask
       id="mask42"
       height="1"
       width="1"
       y="0"
       x="0"
       maskUnits="userSpaceOnUse">
      <g
         id="g44">
        <g
           id="g46"
           clip-path="url(#clipPath32)">
          <g
             id="g48">
            <path
               inkscape:connector-curvature="0"
               id="path50"
               style="fill:url(#radialGradient36);fill-opacity:1;fill-rule:nonzero;stroke:none"
               d="M 0,0 648,0 648,504 0,504 0,0 Z" />
          </g>
        </g>
      </g>
    </mask>
    <clipPath
       id="clipPath56"
       clipPathUnits="userSpaceOnUse">
      <path
         inkscape:connector-curvature="0"
         id="path58"
         d="m 363,228 285,0 0,276 -285,0 0,-276 z" />
    </clipPath>
    <radialGradient
       id="radialGradient60"
       spreadMethod="pad"
       gradientTransform="matrix(0.970665,1.820817,3.691983,-1.968171,-1703.8568,-185.85093)"
       gradientUnits="userSpaceOnUse"
       r="97.453407"
       cy="465.24231"
       cx="637.35345"
       fy="465.24231"
       fx="637.35345">
      <stop
         id="stop62"
         offset="0"
         style="stop-opacity:1;stop-color:#d1d3d4" />
      <stop
         id="stop64"
         offset="1"
         style="stop-opacity:1;stop-color:#d1d3d4" />
    </radialGradient>
  </defs>
  <sodipodi:namedview
     id="base"
     pagecolor="#ffffff"
     bordercolor="#666666"
     borderopacity="1.0"
     inkscape:pageopacity="0.0"
     inkscape:pageshadow="2"
     inkscape:zoom="1.1968254"
     inkscape:cx="374.08488"
     inkscape:cy="315"
     inkscape:document-units="px"
     inkscape:current-layer="layer1"
     showgrid="false"
     units="in"
     inkscape:window-width="1680"
     inkscape:window-height="956"
     inkscape:window-x="0"
     inkscape:window-y="1"
     inkscape:window-maximized="1" />
  <metadata
     id="metadata3314">
    <rdf:RDF>
      <cc:Work
         rdf:about="">
        <dc:format>image/svg+xml</dc:format>
        <dc:type
           rdf:resource="http://purl.org/dc/dcmitype/StillImage" />
        <dc:title />
      </cc:Work>
    </rdf:RDF>
  </metadata>
  <g
     inkscape:label="Layer 1"
     inkscape:groupmode="layer"
     id="layer1"
     transform="translate(0,-422.35975)">
    <rect
       style="fill:#746c66;fill-opacity:1;fill-rule:nonzero;stroke:none"
       id="rect3005"
       width="22.5"
       height="45.900002"
       x="393.75"
       y="1006.4597" />
    <path
       inkscape:connector-curvature="0"
       style="color:#000000;font-style:normal;font-variant:normal;font-weight:normal;font-stretch:normal;font-size:medium;line-height:normal;font-family:sans-serif;text-indent:0;text-align:start;text-decoration:none;text-decoration-line:none;text-decoration-style:solid;text-decoration-color:#000000;letter-spacing:normal;word-spacing:normal;text-transform:none;direction:ltr;block-progression:tb;writing-mode:lr-tb;baseline-shift:baseline;text-anchor:start;white-space:normal;clip-rule:nonzero;display:inline;overflow:visible;visibility:visible;opacity:1;isolation:auto;mix-blend-mode:normal;color-interpolation:sRGB;color-interpolation-filters:linearRGB;solid-color:#000000;solid-opacity:1;fill:#746c66;fill-opacity:1;fill-rule:evenodd;stroke:none;stroke-width:0.80000001px;stroke-linecap:butt;stroke-linejoin:miter;stroke-miterlimit:4;stroke-dasharray:none;stroke-dashoffset:0;stroke-opacity:1;color-rendering:auto;image-rendering:auto;shape-rendering:auto;text-rendering:auto;enable-background:accumulate"
       d="m 766.2168,422.35975 -1.2168,1.2168 0,1.41406 2.63086,-2.63086 -1.41406,0 z m 6.15429,0 -7.37109,7.37109 0,1.41211 8.7832,-8.7832 -1.41211,0 z m 6.15235,0 L 765,435.88319 l 0,1.41406 14.9375,-14.9375 -1.41406,0 z m 6.15429,0 L 765,442.03748 l 0,1.41407 21.0918,-21.0918 -1.41407,0 z m 6.15235,0 L 765,448.18983 l 0,1.41601 27.24609,-27.24609 -1.41601,0 z m 6.1543,0 L 765,454.34608 l 0,1.41211 33.39844,-33.39844 -1.41406,0 z m 6.15234,0 L 765,460.49647 l 0,1.41601 39.55273,-39.55273 -1.41601,0 z m 6.1543,0 L 765,466.65272 l 0,1.41406 45,-44.99805 -0.70898,-0.70898 z m 0,6.1543 L 765,472.80506 l 0,1.41406 45,-45 -0.70898,-0.70507 z m 0,6.15234 L 765,478.95936 l 0,1.41601 45,-45 -0.70898,-0.70898 z m 0,6.1543 L 765,485.11366 l 0,1.41211 45,-44.99805 -0.70898,-0.70703 z m 0,6.15429 L 765,491.266 l 0,1.41602 45,-45 -0.70898,-0.70704 z m 0,6.1543 L 765,497.4203 l 0,1.41406 45,-45 -0.70898,-0.70508 z m 0,6.15234 L 765,503.57459 l 0,1.41407 45,-45 -0.70898,-0.70704 z m 0,6.1543 L 765,509.72889 l 0,1.41406 45,-45 -0.70898,-0.70703 z m 0,6.1543 L 765,515.88123 l 0,1.41407 45,-44.99805 -0.70898,-0.70703 z m 0,6.15234 L 765,522.03553 l 0,1.41602 45,-45 -0.70898,-0.70899 z m 0,6.15625 L 765,528.18983 l 0,1.41211 45,-44.99805 -0.70898,-0.70508 z m 0,6.15039 L 765,534.34217 l 0,1.41602 45,-45 -0.70898,-0.70899 z m 0,6.15625 L 765,540.49647 l 0,1.41406 45,-45 -0.70898,-0.70508 z m 0,6.15235 L 765,546.65077 l 0,1.41406 45,-45 -0.70898,-0.70703 z m 0,6.15429 L 765,552.80506 l 0,1.41211 45,-44.99805 -0.70898,-0.70703 z m 0,6.1543 L 765,558.95741 l 0,1.41406 45,-44.99805 -0.70898,-0.70703 z m 0,6.15234 L 765,565.1117 l 0,1.41407 45,-44.99805 -0.70898,-0.70899 z m 0,6.15625 L 765,571.266 l 0,1.41406 45,-45 -0.70898,-0.70508 z m 0,6.15039 L 765,577.41834 l 0,1.41602 45,-45 -0.70898,-0.70899 z m 0,6.15626 L 765,583.57459 l 0,1.41211 45,-45 -0.70898,-0.70507 z m 0,6.15234 L 765,589.72498 l 0,1.41602 45,-45 -0.70898,-0.70703 z m 0,6.1543 L 765,595.88123 l 0,1.41211 45,-44.99609 -0.70898,-0.70898 z m 0,6.15234 L 765,602.03358 l 0,1.41406 45,-45 -0.70898,-0.70703 z m 0,6.1543 L 765,608.18787 l 0,1.41407 45,-44.99805 -0.70898,-0.70898 z m 0,6.15429 L 765,614.34217 l 0,1.41406 45,-45 -0.70898,-0.70703 z m 0,6.1543 L 765,620.49452 l 0,1.41601 45,-45 -0.70898,-0.70703 z m 0,6.1543 L 765,626.65077 l 0,1.4121 45,-45 -0.70898,-0.70507 z m 0,6.15234 L 765,632.80116 l 0,1.41601 45,-45 -0.70898,-0.70703 z m 0,6.1543 L 765,638.95741 l 0,1.41211 45,-44.9961 -0.70898,-0.70898 z m 0,6.15234 L 765,645.10975 l 0,1.41406 45,-45 -0.70898,-0.70703 z m 0,6.1543 L 765,651.26405 l 0,1.41601 45,-45 -0.70898,-0.70898 z m 0,6.15429 L 765,657.41639 l 0,1.41406 45,-44.99804 -0.70898,-0.70704 z m 0,6.1543 L 765,663.57069 l 0,1.41601 45,-45 -0.70898,-0.70703 z m 0,6.1543 L 765,669.72498 l 0,1.41407 45,-45 -0.70898,-0.70508 z m 0,6.15234 L 765,675.87928 l 0,1.41406 45,-45 -0.70898,-0.70703 z m 0,6.1543 L 765,682.03358 l 0,1.41211 45,-45 -0.70898,-0.70508 z m 0,6.15234 L 765,688.18592 l 0,1.41406 45,-44.99804 -0.70898,-0.70899 z m 0,6.1543 L 765,694.34022 l 0,1.41601 45,-45 -0.70898,-0.70898 z m 0,6.15625 L 765,700.49256 l 0,1.41407 45,-44.99805 -0.70898,-0.70508 z m 0,6.15039 L 765,706.64686 l 0,1.41601 45,-45 -0.70898,-0.70898 z m 0,6.15625 L 765,712.80116 l 0,1.41406 45,-45 -0.70898,-0.70508 z m 0,6.15234 L 765,718.95545 l 0,1.41407 45,-45 -0.70898,-0.70704 z m 0,6.1543 L 765,725.10975 l 0,1.41211 45,-45 -0.70898,-0.70508 z m 0,6.15235 L 765,731.26209 l 0,1.41407 45,-44.99805 -0.70898,-0.70898 z m 0,6.15429 L 765,737.41639 l 0,1.41406 45,-44.99804 -0.70898,-0.70899 z m 0,6.15625 L 765,743.56873 l 0,1.41602 45,-45 -0.70898,-0.70508 z m 0,6.15039 L 765,749.72303 l 0,1.41602 45,-45 -0.70898,-0.70899 z m 0,6.15625 L 765,755.87928 l 0,1.41211 45,-45 -0.70898,-0.70508 z m 0,6.15235 L 765,762.02967 l 0,1.41602 45,-45 -0.70898,-0.70703 z m 0,6.15429 L 765,768.18592 l 0,1.41211 45,-45 -0.70898,-0.70508 z m 0,6.15235 L 765,774.33827 l 0,1.41406 45,-45 -0.70898,-0.70703 z m 0,6.15429 L 765,780.49256 l 0,1.41211 45,-44.99609 -0.70898,-0.70899 z m 0,6.1543 L 765,786.64491 l 0,1.41601 45,-45 -0.70898,-0.70703 z m 0,6.1543 L 765,792.7992 l 0,1.41602 45,-45 -0.70898,-0.70703 z m 0,6.15429 L 765,798.95545 l 0,1.41211 45,-45 -0.70898,-0.70508 z m 0,6.15235 L 765,805.10584 l 0,1.41602 45,-45 -0.70898,-0.70703 z m 0,6.1543 L 765,811.26209 l 0,1.41211 45,-45 -0.70898,-0.70507 z m 0,6.15234 L 765,817.41444 l 0,1.41406 45,-45 -0.70898,-0.70703 z m 0,6.1543 L 765,823.56873 l 0,1.41211 45,-44.99609 -0.70898,-0.70898 z m 0,6.15234 L 765,829.72108 l 0,1.41406 45,-44.99805 -0.70898,-0.70898 z m 0,6.15625 L 765,835.87537 l 0,1.41602 45,-45 -0.70898,-0.70703 z m 0,6.1543 L 765,842.02967 l 0,1.41406 45,-45 -0.70898,-0.70507 z m 0,6.15234 L 765,848.18397 l 0,1.41406 45,-45 -0.70898,-0.70703 z m 0,6.1543 L 765,854.33827 l 0,1.4121 45,-45 -0.70898,-0.70507 z m 0,6.15234 L 765,860.49061 l 0,1.41406 45,-44.99804 -0.70898,-0.70899 z m 0,6.1543 L 765,866.64491 l 0,1.41211 45,-44.9961 -0.70898,-0.70898 z m 0,6.15234 L 765,872.79725 l 0,1.41406 45,-44.99804 -0.70898,-0.70899 z m 0,6.1543 L 765,878.95155 l 0,1.41601 45,-45 -0.70898,-0.70898 z m 0,6.15625 L 765,885.10389 l 0,1.41602 45,-45 -0.70898,-0.70508 z m 0,6.15234 L 765,891.26014 l 0,1.41406 45,-45 -0.70898,-0.70703 z m 0,6.1543 L 765,897.41444 l 0,1.41211 45,-45 -0.70898,-0.70508 z m 0,6.15234 L 765,903.56678 l 0,1.41406 45,-44.99804 -0.70898,-0.70899 z m 0,6.1543 L 765,909.72108 l 0,1.41211 45,-45 -0.70898,-0.70508 z m 0,6.15234 L 765,915.87342 l 0,1.41602 45,-45 -0.70898,-0.70899 z m 0,6.1543 L 765,922.02772 l 0,1.41601 45,-45 -0.70898,-0.70898 z m 0,6.15625 L 765,928.18006 l 0,1.41602 45,-45 -0.70898,-0.70508 z m 0,6.15234 L 765,934.33631 l 0,1.41406 45,-45 -0.70898,-0.70703 z m 0,6.1543 L 765,940.49061 l 0,1.41211 45,-45 -0.70898,-0.70508 z m 0,6.15234 L 765,946.64295 l 0,1.41407 45,-45 -0.70898,-0.70704 z m 0,6.1543 L 765,952.79725 l 0,1.41211 45,-44.99805 -0.70898,-0.70703 z m 0,6.15235 L 765,958.94959 l 0,1.41407 45,-44.99805 -0.70898,-0.70898 z m 0,6.15624 L 765,965.10389 l 0,1.41211 45,-44.99609 -0.70898,-0.70704 z m 0,6.1543 L 765,971.25623 l 0,1.41602 45,-45 -0.70898,-0.70508 z m 0,6.15235 L 765,977.41053 l 0,1.41602 45,-45 -0.70898,-0.70703 z m 0,6.15429 L 765,983.56678 l 0,1.41211 45,-45 -0.70898,-0.70508 z m 0,6.15235 L 765,989.71913 l 0,1.41406 45,-45 -0.70898,-0.70703 z m 0,6.15429 L 765,995.87342 l 0,1.41211 45,-45 -0.70898,-0.70508 z m 0,6.15235 -44.29102,44.293 0,1.416 45,-45.00002 -0.70898,-0.70898 z m 0,6.15429 L 765,1008.1801 l 0,1.414 45,-44.99802 -0.70898,-0.70899 z m 0,6.15235 L 765,1014.3324 l 0,1.416 45,-44.99998 -0.70898,-0.70898 z m 0,6.15625 L 765,1020.4887 l 0,1.414 45,-44.99998 -0.70898,-0.70703 z m 0,6.15429 L 765,1026.643 l 0,1.4121 45,-45.00004 -0.70898,-0.70508 z m 0,6.15235 L 765,1032.7953 l 0,1.4141 45,-44.99809 -0.70898,-0.70898 z m 0,6.1543 L 765,1038.9496 l 0,1.4121 45,-44.99804 -0.70898,-0.70703 z m 0,6.15237 -44.29102,44.2929 0,1.4141 45,-44.998 -0.70898,-0.709 z m 0,6.1562 -44.29102,44.291 0,1.1036 0.30859,0 44.69141,-44.6875 -0.70898,-0.7071 z m 0,6.1524 -39.24219,39.2421 1.41601,0 38.53516,-38.5351 -0.70898,-0.707 z m 0,6.1543 -33.0879,33.0878 1.41602,0 32.38086,-32.3808 -0.70898,-0.707 z m 0,6.1543 -26.93164,26.9335 1.4121,0 26.22852,-26.2285 -0.70898,-0.705 z m 0,6.1523 -20.78125,20.7812 1.41601,0 20.07422,-20.0742 -0.70898,-0.707 z m 0,6.1543 -14.62696,14.6269 1.41406,0 13.92188,-13.9218 -0.70898,-0.7051 z m 0,6.1523 -8.47461,8.4746 1.41797,0 7.76562,-7.7656 -0.70898,-0.709 z m 0,6.1543 -2.32032,2.3203 1.41797,0 1.61133,-1.6113 -0.70898,-0.709 z"
       id="use5228" />
    <path
       style="fill:#e3ae24;fill-rule:evenodd;stroke:none;stroke-width:1px;stroke-linecap:butt;stroke-linejoin:miter;stroke-opacity:1"
       d="m 46.790451,712.29344 105.263229,-182.32126 45.32033,0 L 92.2039,712.29375 Z"
       id="path3965"
       inkscape:connector-curvature="0"
       sodipodi:nodetypes="ccccc" />
    <flowRoot
       xml:space="preserve"
       id="flowRoot3354"
       style="fill:black;stroke:none;stroke-opacity:1;stroke-width:1px;stroke-linejoin:miter;stroke-linecap:butt;fill-opacity:1;font-family:Garamond;font-style:normal;font-weight:normal;font-size:12.5px;line-height:100%;letter-spacing:0px;word-spacing:0px;-inkscape-font-specification:'Garamond, Normal';font-stretch:normal;font-variant:normal;text-anchor:middle;text-align:center;writing-mode:lr"><flowRegion
         id="flowRegion3356"><rect
           id="rect3358"
           width="652.55969"
           height="170.45093"
           x="80.212204"
           y="161.25995" /></flowRegion><flowPara
         id="flowPara3360"></flowPara></flowRoot>  </g>
</svg>
