<?xml version="1.0" encoding="UTF-8" standalone="no"?>
<!-- Created with Inkscape (http://www.inkscape.org/) -->

<svg
   xmlns:dc="http://purl.org/dc/elements/1.1/"
   xmlns:cc="http://creativecommons.org/ns#"
   xmlns:rdf="http://www.w3.org/1999/02/22-rdf-syntax-ns#"
   xmlns:svg="http://www.w3.org/2000/svg"
   xmlns="http://www.w3.org/2000/svg"
   xmlns:sodipodi="http://sodipodi.sourceforge.net/DTD/sodipodi-0.dtd"
   xmlns:inkscape="http://www.inkscape.org/namespaces/inkscape"
   id="svg2"
   version="1.1"
   inkscape:version="0.91 r13725"
   xml:space="preserve"
   width="810"
   height="630"
   viewBox="0 0 810 630"
   sodipodi:docname="Formal_Slide_Outer_Data.svg"><metadata
     id="metadata8"><rdf:RDF><cc:Work
         rdf:about=""><dc:format>image/svg+xml</dc:format><dc:type
           rdf:resource="http://purl.org/dc/dcmitype/StillImage" /><dc:title></dc:title></cc:Work></rdf:RDF></metadata><defs
     id="defs6"><clipPath
       clipPathUnits="userSpaceOnUse"
       id="clipPath22"><path
         d="m 363,228 285,0 0,276 -285,0 0,-276 z"
         id="path24"
         inkscape:connector-curvature="0" /></clipPath><clipPath
       clipPathUnits="userSpaceOnUse"
       id="clipPath32"><path
         d="m 363,228 285,0 0,276 -285,0 0,-276 z"
         id="path34"
         inkscape:connector-curvature="0" /></clipPath><radialGradient
       fx="637.35345"
       fy="465.24231"
       cx="637.35345"
       cy="465.24231"
       r="97.453407"
       gradientUnits="userSpaceOnUse"
       gradientTransform="matrix(0.970665,-1.820817,3.691983,1.968171,-1703.8568,689.85093)"
       spreadMethod="pad"
       id="radialGradient36"><stop
         style="stop-opacity:1;stop-color:#ffffff"
         offset="0"
         id="stop38" /><stop
         style="stop-opacity:0;stop-color:#ffffff"
         offset="1"
         id="stop40" /></radialGradient><mask
       maskUnits="userSpaceOnUse"
       x="0"
       y="0"
       width="1"
       height="1"
       id="mask42"><g
         id="g44"><g
           clip-path="url(#clipPath32)"
           id="g46"><g
             id="g48"><path
               d="M 0,0 648,0 648,504 0,504 0,0 Z"
               style="fill:url(#radialGradient36);fill-opacity:1;fill-rule:nonzero;stroke:none"
               id="path50"
               inkscape:connector-curvature="0" /></g></g></g></mask><clipPath
       clipPathUnits="userSpaceOnUse"
       id="clipPath56"><path
         d="m 363,228 285,0 0,276 -285,0 0,-276 z"
         id="path58"
         inkscape:connector-curvature="0" /></clipPath><radialGradient
       fx="637.35345"
       fy="465.24231"
       cx="637.35345"
       cy="465.24231"
       r="97.453407"
       gradientUnits="userSpaceOnUse"
       gradientTransform="matrix(0.970665,1.820817,3.691983,-1.968171,-1703.8568,-185.85093)"
       spreadMethod="pad"
       id="radialGradient60"><stop
         style="stop-opacity:1;stop-color:#d1d3d4"
         offset="0"
         id="stop62" /><stop
         style="stop-opacity:1;stop-color:#d1d3d4"
         offset="1"
         id="stop64" /></radialGradient></defs><sodipodi:namedview
     pagecolor="#ffffff"
     bordercolor="#666666"
     borderopacity="1"
     objecttolerance="10"
     gridtolerance="10"
     guidetolerance="10"
     inkscape:pageopacity="0"
     inkscape:pageshadow="2"
     inkscape:window-width="1920"
     inkscape:window-height="993"
     id="namedview4"
     showgrid="false"
     inkscape:zoom="1.2571429"
     inkscape:cx="405"
     inkscape:cy="315"
     inkscape:window-x="0"
     inkscape:window-y="24"
     inkscape:window-maximized="1"
     inkscape:current-layer="g10" /><g
     id="g10"
     inkscape:groupmode="layer"
     inkscape:label="Formal_Slide_Outer_Data"
     transform="matrix(1.25,0,0,-1.25,0,630)"><path
       inkscape:connector-curvature="0"
       id="path14"
       style="fill:#746c66;fill-opacity:1;fill-rule:nonzero;stroke:none"
       d="m 315,36 18,0 0,-36 -18,0 0,36 z" /><path
       style="color:#000000;font-style:normal;font-variant:normal;font-weight:normal;font-stretch:normal;font-size:medium;line-height:normal;font-family:sans-serif;text-indent:0;text-align:start;text-decoration:none;text-decoration-line:none;text-decoration-style:solid;text-decoration-color:#000000;letter-spacing:normal;word-spacing:normal;text-transform:none;direction:ltr;block-progression:tb;writing-mode:lr-tb;baseline-shift:baseline;text-anchor:start;white-space:normal;clip-rule:nonzero;display:inline;overflow:visible;visibility:visible;opacity:1;isolation:auto;mix-blend-mode:normal;color-interpolation:sRGB;color-interpolation-filters:linearRGB;solid-color:#000000;solid-opacity:1;fill:#e3ae24;fill-opacity:1;fill-rule:evenodd;stroke:none;stroke-width:0.80000001px;stroke-linecap:butt;stroke-linejoin:miter;stroke-miterlimit:4;stroke-dasharray:none;stroke-dashoffset:0;stroke-opacity:1;color-rendering:auto;image-rendering:auto;shape-rendering:auto;text-rendering:auto;enable-background:accumulate"
       d="M 766.2168 0 L 765 1.2167969 L 765 2.6308594 L 767.63086 0 L 766.2168 0 z M 772.37109 0 L 765 7.3710938 L 765 8.7832031 L 773.7832 0 L 772.37109 0 z M 778.52344 0 L 765 13.523438 L 765 14.9375 L 779.9375 0 L 778.52344 0 z M 784.67773 0 L 765 19.677734 L 765 21.091797 L 786.0918 0 L 784.67773 0 z M 790.83008 0 L 765 25.830078 L 765 27.246094 L 792.24609 0 L 790.83008 0 z M 796.98438 0 L 765 31.986328 L 765 33.398438 L 798.39844 0 L 796.98438 0 z M 803.13672 0 L 765 38.136719 L 765 39.552734 L 804.55273 0 L 803.13672 0 z M 809.29102 0 L 765 44.292969 L 765 45.707031 L 810 0.70898438 L 809.29102 0 z M 809.29102 6.1542969 L 765 50.445312 L 765 51.859375 L 810 6.859375 L 809.29102 6.1542969 z M 809.29102 12.306641 L 765 56.599609 L 765 58.015625 L 810 13.015625 L 809.29102 12.306641 z M 809.29102 18.460938 L 765 62.753906 L 765 64.166016 L 810 19.167969 L 809.29102 18.460938 z M 809.29102 24.615234 L 765 68.90625 L 765 70.322266 L 810 25.322266 L 809.29102 24.615234 z M 809.29102 30.769531 L 765 75.060547 L 765 76.474609 L 810 31.474609 L 809.29102 30.769531 z M 809.29102 36.921875 L 765 81.214844 L 765 82.628906 L 810 37.628906 L 809.29102 36.921875 z M 809.29102 43.076172 L 765 87.369141 L 765 88.783203 L 810 43.783203 L 809.29102 43.076172 z M 809.29102 49.230469 L 765 93.521484 L 765 94.935547 L 810 49.9375 L 809.29102 49.230469 z M 809.29102 55.382812 L 765 99.675781 L 765 101.0918 L 810 56.091797 L 809.29102 55.382812 z M 809.29102 61.539062 L 765 105.83008 L 765 107.24219 L 810 62.244141 L 809.29102 61.539062 z M 809.29102 67.689453 L 765 111.98242 L 765 113.39844 L 810 68.398438 L 809.29102 67.689453 z M 809.29102 73.845703 L 765 118.13672 L 765 119.55078 L 810 74.550781 L 809.29102 73.845703 z M 809.29102 79.998047 L 765 124.29102 L 765 125.70508 L 810 80.705078 L 809.29102 79.998047 z M 809.29102 86.152344 L 765 130.44531 L 765 131.85742 L 810 86.859375 L 809.29102 86.152344 z M 809.29102 92.306641 L 765 136.59766 L 765 138.01172 L 810 93.013672 L 809.29102 92.306641 z M 809.29102 98.458984 L 765 142.75195 L 765 144.16602 L 810 99.167969 L 809.29102 98.458984 z M 809.29102 104.61523 L 765 148.90625 L 765 150.32031 L 810 105.32031 L 809.29102 104.61523 z M 809.29102 110.76562 L 765 155.05859 L 765 156.47461 L 810 111.47461 L 809.29102 110.76562 z M 809.29102 116.92188 L 765 161.21484 L 765 162.62695 L 810 117.62695 L 809.29102 116.92188 z M 809.29102 123.07422 L 765 167.36523 L 765 168.78125 L 810 123.78125 L 809.29102 123.07422 z M 809.29102 129.22852 L 765 173.52148 L 765 174.93359 L 810 129.9375 L 809.29102 129.22852 z M 809.29102 135.38086 L 765 179.67383 L 765 181.08789 L 810 136.08789 L 809.29102 135.38086 z M 809.29102 141.53516 L 765 185.82812 L 765 187.24219 L 810 142.24414 L 809.29102 141.53516 z M 809.29102 147.68945 L 765 191.98242 L 765 193.39648 L 810 148.39648 L 809.29102 147.68945 z M 809.29102 153.84375 L 765 198.13477 L 765 199.55078 L 810 154.55078 L 809.29102 153.84375 z M 809.29102 159.99805 L 765 204.29102 L 765 205.70312 L 810 160.70312 L 809.29102 159.99805 z M 809.29102 166.15039 L 765 210.44141 L 765 211.85742 L 810 166.85742 L 809.29102 166.15039 z M 809.29102 172.30469 L 765 216.59766 L 765 218.00977 L 810 173.01367 L 809.29102 172.30469 z M 809.29102 178.45703 L 765 222.75 L 765 224.16406 L 810 179.16406 L 809.29102 178.45703 z M 809.29102 184.61133 L 765 228.9043 L 765 230.32031 L 810 185.32031 L 809.29102 184.61133 z M 809.29102 190.76562 L 765 235.05664 L 765 236.4707 L 810 191.47266 L 809.29102 190.76562 z M 809.29102 196.91992 L 765 241.21094 L 765 242.62695 L 810 197.62695 L 809.29102 196.91992 z M 809.29102 203.07422 L 765 247.36523 L 765 248.7793 L 810 203.7793 L 809.29102 203.07422 z M 809.29102 209.22656 L 765 253.51953 L 765 254.93359 L 810 209.93359 L 809.29102 209.22656 z M 809.29102 215.38086 L 765 259.67383 L 765 261.08594 L 810 216.08594 L 809.29102 215.38086 z M 809.29102 221.5332 L 765 265.82617 L 765 267.24023 L 810 222.24219 L 809.29102 221.5332 z M 809.29102 227.6875 L 765 271.98047 L 765 273.39648 L 810 228.39648 L 809.29102 227.6875 z M 809.29102 233.84375 L 765 278.13281 L 765 279.54688 L 810 234.54883 L 809.29102 233.84375 z M 809.29102 239.99414 L 765 284.28711 L 765 285.70312 L 810 240.70312 L 809.29102 239.99414 z M 809.29102 246.15039 L 765 290.44141 L 765 291.85547 L 810 246.85547 L 809.29102 246.15039 z M 809.29102 252.30273 L 765 296.5957 L 765 298.00977 L 810 253.00977 L 809.29102 252.30273 z M 809.29102 258.45703 L 765 302.75 L 765 304.16211 L 810 259.16211 L 809.29102 258.45703 z M 809.29102 264.60938 L 765 308.90234 L 765 310.31641 L 810 265.31836 L 809.29102 264.60938 z M 809.29102 270.76367 L 765 315.05664 L 765 316.4707 L 810 271.47266 L 809.29102 270.76367 z M 809.29102 276.91992 L 765 321.20898 L 765 322.625 L 810 277.625 L 809.29102 276.91992 z M 809.29102 283.07031 L 765 327.36328 L 765 328.7793 L 810 283.7793 L 809.29102 283.07031 z M 809.29102 289.22656 L 765 333.51953 L 765 334.93164 L 810 289.93164 L 809.29102 289.22656 z M 809.29102 295.37891 L 765 339.66992 L 765 341.08594 L 810 296.08594 L 809.29102 295.37891 z M 809.29102 301.5332 L 765 345.82617 L 765 347.23828 L 810 302.23828 L 809.29102 301.5332 z M 809.29102 307.68555 L 765 351.97852 L 765 353.39258 L 810 308.39258 L 809.29102 307.68555 z M 809.29102 313.83984 L 765 358.13281 L 765 359.54492 L 810 314.54883 L 809.29102 313.83984 z M 809.29102 319.99414 L 765 364.28516 L 765 365.70117 L 810 320.70117 L 809.29102 319.99414 z M 809.29102 326.14844 L 765 370.43945 L 765 371.85547 L 810 326.85547 L 809.29102 326.14844 z M 809.29102 332.30273 L 765 376.5957 L 765 378.00781 L 810 333.00781 L 809.29102 332.30273 z M 809.29102 338.45508 L 765 382.74609 L 765 384.16211 L 810 339.16211 L 809.29102 338.45508 z M 809.29102 344.60938 L 765 388.90234 L 765 390.31445 L 810 345.31445 L 809.29102 344.60938 z M 809.29102 350.76172 L 765 395.05469 L 765 396.46875 L 810 351.46875 L 809.29102 350.76172 z M 809.29102 356.91602 L 765 401.20898 L 765 402.62109 L 810 357.625 L 809.29102 356.91602 z M 809.29102 363.06836 L 765 407.36133 L 765 408.77539 L 810 363.77734 L 809.29102 363.06836 z M 809.29102 369.22461 L 765 413.51562 L 765 414.93164 L 810 369.93164 L 809.29102 369.22461 z M 809.29102 375.37891 L 765 419.66992 L 765 421.08398 L 810 376.08398 L 809.29102 375.37891 z M 809.29102 381.53125 L 765 425.82422 L 765 427.23828 L 810 382.23828 L 809.29102 381.53125 z M 809.29102 387.68555 L 765 431.97852 L 765 433.39062 L 810 388.39062 L 809.29102 387.68555 z M 809.29102 393.83789 L 765 438.13086 L 765 439.54492 L 810 394.54688 L 809.29102 393.83789 z M 809.29102 399.99219 L 765 444.28516 L 765 445.69727 L 810 400.70117 L 809.29102 399.99219 z M 809.29102 406.14453 L 765 450.4375 L 765 451.85156 L 810 406.85352 L 809.29102 406.14453 z M 809.29102 412.29883 L 765 456.5918 L 765 458.00781 L 810 413.00781 L 809.29102 412.29883 z M 809.29102 418.45508 L 765 462.74414 L 765 464.16016 L 810 419.16016 L 809.29102 418.45508 z M 809.29102 424.60742 L 765 468.90039 L 765 470.31445 L 810 425.31445 L 809.29102 424.60742 z M 809.29102 430.76172 L 765 475.05469 L 765 476.4668 L 810 431.4668 L 809.29102 430.76172 z M 809.29102 436.91406 L 765 481.20703 L 765 482.62109 L 810 437.62305 L 809.29102 436.91406 z M 809.29102 443.06836 L 765 487.36133 L 765 488.77344 L 810 443.77344 L 809.29102 443.06836 z M 809.29102 449.2207 L 765 493.51367 L 765 494.92969 L 810 449.92969 L 809.29102 449.2207 z M 809.29102 455.375 L 765 499.66797 L 765 501.08398 L 810 456.08398 L 809.29102 455.375 z M 809.29102 461.53125 L 765 505.82031 L 765 507.23633 L 810 462.23633 L 809.29102 461.53125 z M 809.29102 467.68359 L 765 511.97656 L 765 513.39062 L 810 468.39062 L 809.29102 467.68359 z M 809.29102 473.83789 L 765 518.13086 L 765 519.54297 L 810 474.54297 L 809.29102 473.83789 z M 809.29102 479.99023 L 765 524.2832 L 765 525.69727 L 810 480.69727 L 809.29102 479.99023 z M 809.29102 486.14453 L 765 530.4375 L 765 531.84961 L 810 486.85156 L 809.29102 486.14453 z M 809.29102 492.29688 L 765 536.58984 L 765 538.00391 L 810 493.00586 L 809.29102 492.29688 z M 809.29102 498.45312 L 765 542.74414 L 765 544.15625 L 810 499.16016 L 809.29102 498.45312 z M 809.29102 504.60742 L 765 548.89648 L 765 550.3125 L 810 505.3125 L 809.29102 504.60742 z M 809.29102 510.75977 L 765 555.05078 L 765 556.4668 L 810 511.4668 L 809.29102 510.75977 z M 809.29102 516.91406 L 765 561.20703 L 765 562.61914 L 810 517.61914 L 809.29102 516.91406 z M 809.29102 523.06641 L 765 567.35938 L 765 568.77344 L 810 523.77344 L 809.29102 523.06641 z M 809.29102 529.2207 L 765 573.51367 L 765 574.92578 L 810 529.92578 L 809.29102 529.2207 z M 809.29102 535.37305 L 765 579.66602 L 765 581.08203 L 810 536.08203 L 809.29102 535.37305 z M 809.29102 541.52734 L 765 585.82031 L 765 587.23438 L 810 542.23633 L 809.29102 541.52734 z M 809.29102 547.67969 L 765 591.97266 L 765 593.38867 L 810 548.38867 L 809.29102 547.67969 z M 809.29102 553.83594 L 765 598.12891 L 765 599.54297 L 810 554.54297 L 809.29102 553.83594 z M 809.29102 559.99023 L 765 604.2832 L 765 605.69531 L 810 560.69531 L 809.29102 559.99023 z M 809.29102 566.14258 L 765 610.43555 L 765 611.84961 L 810 566.85156 L 809.29102 566.14258 z M 809.29102 572.29688 L 765 616.58984 L 765 618.00195 L 810 573.00391 L 809.29102 572.29688 z M 809.29102 578.44922 L 765 622.74219 L 765 624.15625 L 810 579.1582 L 809.29102 578.44922 z M 809.29102 584.60547 L 765 628.89648 L 765 630 L 765.30859 630 L 810 585.3125 L 809.29102 584.60547 z M 809.29102 590.75781 L 770.04883 630 L 771.46484 630 L 810 591.46484 L 809.29102 590.75781 z M 809.29102 596.91211 L 776.20312 630 L 777.61914 630 L 810 597.61914 L 809.29102 596.91211 z M 809.29102 603.06641 L 782.35938 630 L 783.77148 630 L 810 603.77148 L 809.29102 603.06641 z M 809.29102 609.21875 L 788.50977 630 L 789.92578 630 L 810 609.92578 L 809.29102 609.21875 z M 809.29102 615.37305 L 794.66406 630 L 796.07812 630 L 810 616.07812 L 809.29102 615.37305 z M 809.29102 621.52539 L 800.81641 630 L 802.23438 630 L 810 622.23438 L 809.29102 621.52539 z M 809.29102 627.67969 L 806.9707 630 L 808.38867 630 L 810 628.38867 L 809.29102 627.67969 z "
       transform="matrix(0.8,0,0,-0.8,0,504)"
       id="use5228" /></g></svg>