<?xml version="1.0" encoding="UTF-8" standalone="no"?>
<!-- Created with Inkscape (http://www.inkscape.org/) -->

<svg
   xmlns:dc="http://purl.org/dc/elements/1.1/"
   xmlns:cc="http://creativecommons.org/ns#"
   xmlns:rdf="http://www.w3.org/1999/02/22-rdf-syntax-ns#"
   xmlns:svg="http://www.w3.org/2000/svg"
   xmlns="http://www.w3.org/2000/svg"
   xmlns:sodipodi="http://sodipodi.sourceforge.net/DTD/sodipodi-0.dtd"
   xmlns:inkscape="http://www.inkscape.org/namespaces/inkscape"
   id="svg2"
   version="1.1"
   inkscape:version="0.91 r13725"
   xml:space="preserve"
   width="810"
   height="630"
   viewBox="0 0 810 630"
   sodipodi:docname="pnnl_slide_outer.svg"><metadata
     id="metadata8"><rdf:RDF><cc:Work
         rdf:about=""><dc:format>image/svg+xml</dc:format><dc:type
           rdf:resource="http://purl.org/dc/dcmitype/StillImage" /><dc:title></dc:title></cc:Work></rdf:RDF></metadata><defs
     id="defs6"><clipPath
       clipPathUnits="userSpaceOnUse"
       id="clipPath22"><path
         d="m 363,228 285,0 0,276 -285,0 0,-276 z"
         id="path24"
         inkscape:connector-curvature="0" /></clipPath><clipPath
       clipPathUnits="userSpaceOnUse"
       id="clipPath32"><path
         d="m 363,228 285,0 0,276 -285,0 0,-276 z"
         id="path34"
         inkscape:connector-curvature="0" /></clipPath><radialGradient
       fx="637.35345"
       fy="465.24231"
       cx="637.35345"
       cy="465.24231"
       r="97.453407"
       gradientUnits="userSpaceOnUse"
       gradientTransform="matrix(0.970665,-1.820817,3.691983,1.968171,-1703.8568,689.85093)"
       spreadMethod="pad"
       id="radialGradient36"><stop
         style="stop-opacity:1;stop-color:#ffffff"
         offset="0"
         id="stop38" /><stop
         style="stop-opacity:0;stop-color:#ffffff"
         offset="1"
         id="stop40" /></radialGradient><mask
       maskUnits="userSpaceOnUse"
       x="0"
       y="0"
       width="1"
       height="1"
       id="mask42"><g
         id="g44"><g
           clip-path="url(#clipPath32)"
           id="g46"><g
             id="g48"><path
               d="M 0,0 648,0 648,504 0,504 0,0 Z"
               style="fill:url(#radialGradient36);fill-opacity:1;fill-rule:nonzero;stroke:none"
               id="path50"
               inkscape:connector-curvature="0" /></g></g></g></mask><clipPath
       clipPathUnits="userSpaceOnUse"
       id="clipPath56"><path
         d="m 363,228 285,0 0,276 -285,0 0,-276 z"
         id="path58"
         inkscape:connector-curvature="0" /></clipPath><radialGradient
       fx="637.35345"
       fy="465.24231"
       cx="637.35345"
       cy="465.24231"
       r="97.453407"
       gradientUnits="userSpaceOnUse"
       gradientTransform="matrix(0.970665,1.820817,3.691983,-1.968171,-1703.8568,-185.85093)"
       spreadMethod="pad"
       id="radialGradient60"><stop
         style="stop-opacity:1;stop-color:#d1d3d4"
         offset="0"
         id="stop62" /><stop
         style="stop-opacity:1;stop-color:#d1d3d4"
         offset="1"
         id="stop64" /></radialGradient></defs><sodipodi:namedview
     pagecolor="#ffffff"
     bordercolor="#666666"
     borderopacity="1"
     objecttolerance="10"
     gridtolerance="10"
     guidetolerance="10"
     inkscape:pageopacity="0"
     inkscape:pageshadow="2"
     inkscape:window-width="2560"
     inkscape:window-height="1418"
     id="namedview4"
     showgrid="false"
     inkscape:zoom="1.2571429"
     inkscape:cx="405"
     inkscape:cy="315"
     inkscape:window-x="1690"
     inkscape:window-y="18"
     inkscape:window-maximized="0"
     inkscape:current-layer="g10" /><g
     id="g10"
     inkscape:groupmode="layer"
     inkscape:label="Formal_Slide_Outer_Data"
     transform="matrix(1.25,0,0,-1.25,0,630)"><path
       style="color:#000000;font-style:normal;font-variant:normal;font-weight:normal;font-stretch:normal;font-size:medium;line-height:normal;font-family:sans-serif;text-indent:0;text-align:start;text-decoration:none;text-decoration-line:none;text-decoration-style:solid;text-decoration-color:#000000;letter-spacing:normal;word-spacing:normal;text-transform:none;direction:ltr;block-progression:tb;writing-mode:lr-tb;baseline-shift:baseline;text-anchor:start;white-space:normal;clip-rule:nonzero;display:inline;overflow:visible;visibility:visible;opacity:1;isolation:auto;mix-blend-mode:normal;color-interpolation:sRGB;color-interpolation-filters:linearRGB;solid-color:#000000;solid-opacity:1;fill:#d77600;fill-opacity:0.40000001;fill-rule:evenodd;stroke:none;stroke-width:0.80000001px;stroke-linecap:butt;stroke-linejoin:miter;stroke-miterlimit:4;stroke-dasharray:none;stroke-dashoffset:0;stroke-opacity:1;color-rendering:auto;image-rendering:auto;shape-rendering:auto;text-rendering:auto;enable-background:accumulate"
       d="M 648,35.02656 646.74843,36 645.29397,36 648,33.89531 l 0,1.13125 z M 648,30.10313 640.4183,36 638.96585,36 648,28.97344 l 0,1.12969 z M 648,25.18125 634.09018,36 632.63571,36 648,24.05 l 0,1.13125 z M 648,20.25782 627.76004,36 626.30558,36 648,19.12656 l 0,1.13126 z M 648,15.33594 621.43192,36 619.97544,36 648,14.20313 l 0,1.13281 z M 648,10.4125 615.09978,36 613.64732,36 648,9.28125 648,10.4125 Z M 648,5.49062 608.77365,36 607.31718,36 648,4.35782 l 0,1.1328 z M 648,0.56718 602.44151,36 600.98706,36 647.27076,0 648,0.56718 Z m -6.33014,0 L 596.11339,36 l -1.45446,0 46.28571,-36 0.72522,0.56718 z m -6.32812,0 L 589.78326,36 l -1.45647,0 46.28571,-36 0.72924,0.56718 z m -6.33013,0 L 583.45313,36 l -1.45246,0 46.2837,-36 0.72724,0.56718 z m -6.33014,0 L 577.125,36 l -1.45647,0 46.28571,-36 0.72723,0.56718 z m -6.33012,0 L 570.79486,36 l -1.45446,0 46.28571,-36 0.72524,0.56718 z m -6.32814,0 L 564.46473,36 l -1.45446,0 46.28572,-36 0.72722,0.56718 z m -6.33013,0 L 558.1346,36 l -1.45446,0 46.28571,-36 0.72723,0.56718 z m -6.33014,0 L 551.80647,36 l -1.45446,0 46.2837,-36 0.72723,0.56718 z m -6.32812,0 L 545.47635,36 l -1.45649,0 46.28572,-36 0.72924,0.56718 z m -6.33214,0 L 539.14621,36 l -1.45246,0 46.28371,-36 0.72522,0.56718 z m -6.32611,0 L 532.81808,36 l -1.45647,0 46.28571,-36 0.72925,0.56718 z m -6.33215,0 L 526.48794,36 l -1.45445,0 46.28571,-36 0.72522,0.56718 z m -6.32813,0 L 520.1578,36 l -1.45445,0 46.28572,-36 0.72722,0.56718 z m -6.33014,0 L 513.82768,36 l -1.45246,0 46.28371,-36 0.72722,0.56718 z m -6.33012,0 L 507.49955,36 l -1.45447,0 46.28371,-36 0.72724,0.56718 z m -6.32813,0 L 501.16942,36 l -1.45447,0 46.2837,-36 0.72925,0.56718 z m -6.33213,0 L 494.83929,36 l -1.45447,0 46.28572,-36 0.72523,0.56718 z m -6.32613,0 L 488.51117,36 l -1.45649,0 46.28572,-36 0.72924,0.56718 z m -6.33214,0 L 482.17902,36 l -1.45245,0 46.28571,-36 0.72522,0.56718 z m -6.32813,0 L 475.85291,36 l -1.45648,0 46.28571,-36 0.72723,0.56718 z m -6.33014,0 L 469.52077,36 468.06831,36 514.35,0 l 0.72923,0.56718 z m -6.32812,0 L 463.19264,36 l -1.45447,0 46.28572,-36 0.72722,0.56718 z m -6.33013,0 L 456.8625,36 l -1.45446,0 46.2837,-36 0.72924,0.56718 z m -6.33013,0 L 450.53236,36 l -1.45445,0 46.28572,-36 0.72722,0.56718 z m -6.33014,0 L 444.20423,36 l -1.45646,0 46.28572,-36 0.72722,0.56718 z m -6.33013,0 L 437.87209,36 l -1.45245,0 46.28572,-36 0.72522,0.56718 z m -6.32812,0 L 431.54598,36 l -1.45647,0 46.28571,-36 0.72724,0.56718 z m -6.33014,0 L 425.21383,36 l -1.45246,0 46.28171,-36 0.72924,0.56718 z m -6.32812,0 L 418.88571,36 l -1.45446,0 46.28571,-36 0.72724,0.56718 z m -6.33013,0 L 412.55558,36 l -1.45647,0 46.28571,-36 0.72925,0.56718 z m -6.33014,0 L 406.22746,36 l -1.45447,0 46.2837,-36 0.72724,0.56718 z m -6.33014,0 L 399.89732,36 l -1.45647,0 46.28572,-36 0.72722,0.56718 z m -6.33014,0 L 393.5672,36 l -1.45448,0 46.28571,-36 0.72522,0.56718 z m -6.32811,0 L 387.23706,36 l -1.45446,0 46.28571,-36 0.72723,0.56718 z m -6.33014,0 L 380.90692,36 l -1.45246,0 46.28572,-36 0.72522,0.56718 z m -6.32812,0 L 374.57879,36 l -1.45445,0 46.2837,-36 0.72924,0.56718 z m -6.33014,0 L 368.24865,36 l -1.45645,0 46.28571,-36 0.72923,0.56718 z m -6.33214,0 L 361.92054,36 360.46607,36 406.74978,0 407.475,0.56718 Z m -6.32611,0 L 355.5904,36 l -1.45647,0 46.28571,-36 0.72925,0.56718 z m -6.33215,0 L 349.26026,36 l -1.45446,0 46.28571,-36 0.72523,0.56718 z m -6.32811,0 L 342.93014,36 l -1.45448,0 46.28571,-36 0.72726,0.56718 z m -6.33014,0 L 336.6,36 l -1.45246,0 46.28572,-36 0.72523,0.56718 z m -6.32813,0 L 330.27188,36 l -1.45448,0 46.28371,-36 0.72925,0.56718 z m -6.33014,0 L 323.94174,36 l -1.45446,0 46.2837,-36 0.72924,0.56718 z m -6.33214,0 L 317.61363,36 l -1.45649,0 46.28572,-36 0.72522,0.56718 z m -6.32612,0 L 311.28349,36 l -1.45648,0 46.28571,-36 0.72924,0.56718 z m -6.33214,0 L 304.95135,36 l -1.45246,0 46.28571,-36 0.72522,0.56718 z m -6.32813,0 L 298.62522,36 l -1.45647,0 46.28571,-36 0.72723,0.56718 z m -6.33012,0 L 292.29308,36 l -1.45245,0 46.28572,-36 0.72522,0.56718 z m -6.32814,0 L 285.96495,36 l -1.45446,0 46.28572,-36 0.72722,0.56718 z m -6.33012,0 L 279.63482,36 l -1.45246,0 46.28171,-36 0.72924,0.56718 z m -6.33014,0 L 273.30669,36 l -1.45647,0 46.28571,-36 0.72724,0.56718 z m -6.33013,0 L 266.97657,36 l -1.45649,0 46.28572,-36 0.72724,0.56718 z m -6.33013,0 L 260.64442,36 l -1.45246,0 46.28572,-36 0.72523,0.56718 z m -6.32813,0 L 254.31831,36 l -1.45648,0 46.28571,-36 0.72724,0.56718 z m -6.33014,0 L 247.98617,36 l -1.45246,0 46.28571,-36 0.72522,0.56718 z m -6.32813,0 L 241.65804,36 l -1.45447,0 46.28572,-36 0.72722,0.56718 z m -6.33014,0 L 235.32791,36 l -1.45246,0 46.28169,-36 0.72923,0.56718 z m -6.32811,0 L 228.99978,36 l -1.45446,0 46.2837,-36 0.72924,0.56718 z m -6.33215,0 L 222.66964,36 l -1.45647,0 46.28572,-36 0.72722,0.56718 z m -6.33013,0 L 216.33951,36 l -1.45446,0 46.28572,-36 0.72521,0.56718 z m -6.32812,0 L 210.00937,36 l -1.45445,0 46.28571,-36 0.72723,0.56718 z m -6.33014,0 L 203.67923,36 l -1.45244,0 46.28571,-36 0.72522,0.56718 z m -6.32812,0 L 197.35111,36 l -1.45446,0 46.28371,-36 0.72924,0.56718 z m -6.33014,0 L 191.02098,36 l -1.45246,0 46.2817,-36 0.72924,0.56718 z m -6.32811,0 L 184.69286,36 l -1.45447,0 46.2837,-36 0.72926,0.56718 z m -6.33014,0 L 178.36272,36 l -1.45647,0 46.28571,-36 0.72925,0.56718 z m -6.33214,0 L 172.0346,36 l -1.45648,0 46.28571,-36 0.72524,0.56718 z m -6.32814,0 L 165.70246,36 l -1.45447,0 46.28572,-36 0.72722,0.56718 z m -6.33013,0 L 159.37232,36 l -1.45246,0 46.28572,-36 0.72522,0.56718 z m -6.32812,0 L 153.0442,36 l -1.45446,0 46.28369,-36 0.72925,0.56718 z m -6.33014,0 L 146.71407,36 l -1.45246,0 46.28571,-36 0.72522,0.56718 z m -6.32812,0 L 140.38593,36 l -1.45647,0 46.28572,-36 0.72924,0.56718 z m -6.33013,0 L 134.0558,36 l -1.45646,0 46.28571,-36 0.72924,0.56718 z m -6.33215,0 L 127.72768,36 l -1.45647,0 46.28571,-36 0.72522,0.56718 z m -6.32812,0 L 121.39554,36 l -1.45447,0 46.28572,-36 0.72723,0.56718 z m -6.33013,0 L 115.0654,36 l -1.45246,0 46.28571,-36 0.72524,0.56718 z m -6.32812,0 L 108.73728,36 l -1.45448,0 46.28572,-36 0.72725,0.56718 z m -6.33014,0 L 102.40714,36 l -1.45246,0 46.28371,-36 0.72724,0.56718 z m -6.32813,0 L 96.079024,36 94.624547,36 140.90826,0 141.6375,0.56718 Z m -6.33214,0 L 89.748887,36 88.296429,36 134.57812,0 l 0.72724,0.56718 z m -6.33014,0 L 83.420769,36 81.964286,36 128.25,0 l 0.72522,0.56718 z m -6.32813,0 L 77.090631,36 75.634149,36 121.91986,0 l 0.72723,0.56718 z m -6.33013,0 L 70.758489,36 69.30603,36 115.59174,0 l 0.72522,0.56718 z m -6.32813,0 L 64.430357,36 62.975893,36 109.26161,0 l 0.72722,0.56718 z m -6.33012,0 L 58.10022,36 56.647774,36 102.93349,0 l 0.72522,0.56718 z m -6.328133,0 L 51.772089,36 50.315631,36 96.601346,0 97.330577,0.56718 Z m -6.330124,0 L 45.441964,36 43.9875,36 90.271209,0 91.000453,0.56718 Z m -6.328132,0 L 39.113833,36 37.657363,36 83.943077,0 84.672321,0.56718 Z m -6.332142,0 L 32.78169,36 31.327226,36 77.61294,0 78.340179,0.56718 Z m -6.330125,0 L 26.451566,36 24.999107,36 71.284821,0 72.010054,0.56718 Z m -6.328131,0 L 20.123434,36 18.66897,36 64.952679,0 65.681923,0.56718 Z m -6.330137,0 L 13.79331,36 12.340851,36 58.624547,0 59.351786,0.56718 Z m -6.328132,0 L 7.4651786,36 6.0107143,36 52.294423,0 53.023654,0.56718 Z m -6.332143,0 L 1.1350543,36 0,36 0,35.75313 45.964286,0 46.691511,0.56718 Z m -6.328118,0 L 0,31.96094 0,30.82813 39.636167,0 40.363393,0.56718 Z m -6.330137,0 L 0,27.0375 0,25.90469 33.30603,0 34.033256,0.56718 Z m -6.330137,0 L 0,22.1125 0,20.98282 26.977911,0 27.703119,0.56718 Z m -6.328119,0 L 0,17.19218 0,16.05938 20.647774,0 21.375,0.56718 Z m -6.330137,0 L 0,12.26875 0,11.1375 14.319643,0 l 0.72522,0.56718 z m -6.3281187,0 L 0,7.34687 0,6.2125 7.9875,0 8.7167443,0.56718 Z m -6.3301372,0 L 0,2.42344 0,1.28906 1.6573629,0 2.3866071,0.56718 Z"
       id="use5228"
       inkscape:connector-curvature="0" /><path
       inkscape:connector-curvature="0"
       id="path14"
       style="fill:#d77600;fill-opacity:1;fill-rule:nonzero;stroke:none"
       d="m 315,36 18,0 0,-36 -18,0 0,36 z" /></g></svg>