<?xml version="1.0" encoding="UTF-8" standalone="no"?>
<!-- Created with Inkscape (http://www.inkscape.org/) -->

<svg
   xmlns:dc="http://purl.org/dc/elements/1.1/"
   xmlns:cc="http://creativecommons.org/ns#"
   xmlns:rdf="http://www.w3.org/1999/02/22-rdf-syntax-ns#"
   xmlns:svg="http://www.w3.org/2000/svg"
   xmlns="http://www.w3.org/2000/svg"
   xmlns:sodipodi="http://sodipodi.sourceforge.net/DTD/sodipodi-0.dtd"
   xmlns:inkscape="http://www.inkscape.org/namespaces/inkscape"
   width="810"
   height="630"
   id="svg3309"
   version="1.1"
   inkscape:version="0.91 r13725"
   sodipodi:docname="pnnl_chapter_outer.svg">
  <defs
     id="defs3311">
    <clipPath
       id="clipPath22"
       clipPathUnits="userSpaceOnUse">
      <path
         inkscape:connector-curvature="0"
         id="path24"
         d="m 363,228 285,0 0,276 -285,0 0,-276 z" />
    </clipPath>
    <clipPath
       id="clipPath32"
       clipPathUnits="userSpaceOnUse">
      <path
         inkscape:connector-curvature="0"
         id="path34"
         d="m 363,228 285,0 0,276 -285,0 0,-276 z" />
    </clipPath>
    <radialGradient
       id="radialGradient36"
       spreadMethod="pad"
       gradientTransform="matrix(0.970665,-1.820817,3.691983,1.968171,-1703.8568,689.85093)"
       gradientUnits="userSpaceOnUse"
       r="97.453407"
       cy="465.24231"
       cx="637.35345"
       fy="465.24231"
       fx="637.35345">
      <stop
         id="stop38"
         offset="0"
         style="stop-opacity:1;stop-color:#ffffff" />
      <stop
         id="stop40"
         offset="1"
         style="stop-opacity:0;stop-color:#ffffff" />
    </radialGradient>
    <mask
       id="mask42"
       height="1"
       width="1"
       y="0"
       x="0"
       maskUnits="userSpaceOnUse">
      <g
         id="g44">
        <g
           id="g46"
           clip-path="url(#clipPath32)">
          <g
             id="g48">
            <path
               inkscape:connector-curvature="0"
               id="path50"
               style="fill:url(#radialGradient36);fill-opacity:1;fill-rule:nonzero;stroke:none"
               d="M 0,0 648,0 648,504 0,504 0,0 Z" />
          </g>
        </g>
      </g>
    </mask>
    <clipPath
       id="clipPath56"
       clipPathUnits="userSpaceOnUse">
      <path
         inkscape:connector-curvature="0"
         id="path58"
         d="m 363,228 285,0 0,276 -285,0 0,-276 z" />
    </clipPath>
    <radialGradient
       id="radialGradient60"
       spreadMethod="pad"
       gradientTransform="matrix(0.970665,1.820817,3.691983,-1.968171,-1703.8568,-185.85093)"
       gradientUnits="userSpaceOnUse"
       r="97.453407"
       cy="465.24231"
       cx="637.35345"
       fy="465.24231"
       fx="637.35345">
      <stop
         id="stop62"
         offset="0"
         style="stop-opacity:1;stop-color:#d1d3d4" />
      <stop
         id="stop64"
         offset="1"
         style="stop-opacity:1;stop-color:#d1d3d4" />
    </radialGradient>
  </defs>
  <sodipodi:namedview
     id="base"
     pagecolor="#ffffff"
     bordercolor="#666666"
     borderopacity="1.0"
     inkscape:pageopacity="0.0"
     inkscape:pageshadow="2"
     inkscape:zoom="0.84761905"
     inkscape:cx="405"
     inkscape:cy="315"
     inkscape:document-units="px"
     inkscape:current-layer="layer1"
     showgrid="false"
     units="in"
     inkscape:window-width="1200"
     inkscape:window-height="700"
     inkscape:window-x="2545"
     inkscape:window-y="320"
     inkscape:window-maximized="0" />
  <metadata
     id="metadata3314">
    <rdf:RDF>
      <cc:Work
         rdf:about="">
        <dc:format>image/svg+xml</dc:format>
        <dc:type
           rdf:resource="http://purl.org/dc/dcmitype/StillImage" />
        <dc:title />
      </cc:Work>
    </rdf:RDF>
  </metadata>
  <g
     inkscape:label="Layer 1"
     inkscape:groupmode="layer"
     id="layer1"
     transform="translate(0,-422.35975)">
    <rect
       style="fill:#d77600;fill-opacity:1;fill-rule:nonzero;stroke:none"
       id="rect3005"
       width="22.5"
       height="45.900002"
       x="393.75"
       y="1006.4597" />
    <flowRoot
       xml:space="preserve"
       id="flowRoot3354"
       style="fill:black;stroke:none;stroke-opacity:1;stroke-width:1px;stroke-linejoin:miter;stroke-linecap:butt;fill-opacity:1;font-family:Garamond;font-style:normal;font-weight:normal;font-size:12.5px;line-height:100%;letter-spacing:0px;word-spacing:0px;-inkscape-font-specification:'Garamond, Normal';font-stretch:normal;font-variant:normal;text-anchor:middle;text-align:center;writing-mode:lr"><flowRegion
         id="flowRegion3356"><rect
           id="rect3358"
           width="652.55969"
           height="170.45093"
           x="80.212204"
           y="161.25995" /></flowRegion><flowPara
         id="flowPara3360" /></flowRoot>    <g
       id="layer1-2"
       inkscape:label="Layer 1"
       transform="matrix(-1.2050851,2.8482986,-2.8482986,-1.2050851,1354.1612,134.14187)"
       style="stroke:#b3b3b3;stroke-width:0.32333797;stroke-miterlimit:4;stroke-dasharray:none;stroke-opacity:0.42352941">
      <path
         d="m 278.15411,209.51716 -16.51143,-3.55631 m 14.22523,-52.32854 78.9923,171.59172 m -136.90932,-190.89739 2.41321,-8.1287 m 22.48095,47.12109 3.59351,-2.43765 m -49.82552,-40.61909 21.39175,4.11408 24.94088,38.85854 0.40742,4.42692 m 105.46701,150.11771 -88.70156,-163.4783 15.87638,-10.54192 -20.44877,-4.19136 m -6.09653,84.33531 28.45046,-24.38611 67.59203,119.67041 m -106.71142,-126.27498 13.71719,9.14479 m -3.04826,21.84589 -11.25338,-14.90787 0.47427,-16.09336 -35.96094,-46.22146 m 25.67743,93.96776 1.03262,-16.83904 m 89.15756,106.7657 -90.46541,-89.90628 21.21617,-16.63582 80.04344,101.97519 m -150.53989,-152.90922 -3.87535,-12.17768 2.47824,-8.14408 m 1.39712,20.32176 50.29636,50.8044 5.84334,-8.65701 -57.66383,-62.46915 25.91024,-5.08044 -6.60457,-27.43438 55.88484,81.9221 9.17996,-5.9995 -18.32475,-28.67451 16.76545,-13.08213 -13.33615,-9.2718 8.90604,-5.47543 -16.39969,-27.54744 -18.79763,4.06436 25.91024,44.70787 0.50805,-15.74936"
         style="fill:none;fill-rule:evenodd;stroke:#b3b3b3;stroke-width:0.32333797;stroke-linecap:butt;stroke-linejoin:bevel;stroke-miterlimit:4;stroke-dasharray:none;stroke-opacity:0.42352941"
         id="path4224"
         inkscape:connector-curvature="0"
         sodipodi:nodetypes="cccccccccccccccccccccccccccccccccccccccccccccccccc" />
    </g>
  </g>
</svg>
